<svg xmlns="http://www.w3.org/2000/svg" viewBox="0 0 51.52 16.1" aria-hidden="true"><path d="M30.01 0h6.25v3.61h-1.29V16.1h-4.12l-4.19-9.08v5.47h1.35v3.61h-6.18v-3.61h1.29V3.61h-1.29V0h5.6l3.99 8.57V3.61H30m-16.28 0h1.29v8.89h-1.29v3.61h6.44V12.5h-1.35V3.61h1.35V0h-6.44m36.77 12.49-2.83-6.18 2.51-2.7h1.09V0h-6.12v3.48h.84l-3.16 3.35V3.48h1.22V0h-6.25v3.61h1.29v8.89h-1.29v3.61h6.25V12.5h-1.22v-1.16l2-2 1.35 3.16h-1.03v3.61h6.38V12.5M9.53 0l2.58 2.7v5.28l-2.58 2.64H5.15v1.93h1.42v3.54H0v-3.61h1.29V3.61H0V0h9.53zM8.31 3.61H5.15v3.48h3.16V3.61z"></path></svg>